<svg width="50" height="50" viewBox="0 0 50 50" fill="none" xmlns="http://www.w3.org/2000/svg">
<rect width="50" height="50" fill="#1E1E1E"/>
<g id="Detail  pilihan kursi">
<g clip-path="url(#clip0_0_1)">
<rect x="-1565" y="-564" width="1919" height="1444" rx="20" fill="#C7C7C7"/>
<rect id="Rectangle 219" x="-1564.5" y="-563.5" width="1919" height="1443" fill="#C7C7C7" stroke="black"/>
<g id="detail pembayaran">
<rect id="Rectangle 229" x="-250.5" y="-370.5" width="551" height="716" fill="white" stroke="black"/>
</g>
<g id="mdi:swap-horizontal">
<path id="Vector" d="M40.5817 20.8177C41.906 19.4934 41.906 17.3463 40.5817 16.0221L37.8629 13.3032C36.73 12.1704 34.793 12.9727 34.793 14.5749C34.793 15.5681 33.9878 16.3732 32.9946 16.3732H22.5131C21.3827 16.3732 20.4664 17.2895 20.4664 18.4199C20.4664 19.5502 21.3827 20.4665 22.5131 20.4665H32.9946C33.9878 20.4665 34.793 21.2717 34.793 22.2649C34.793 23.867 36.73 24.6694 37.8629 23.5365L40.5817 20.8177ZM14.3265 26.8548C14.3265 25.2526 12.3894 24.4502 11.2565 25.5831L8.53769 28.302C7.21342 29.6262 7.21342 31.7733 8.53769 33.0975L11.2565 35.8164C12.3894 36.9493 14.3265 36.1469 14.3265 34.5447C14.3265 33.5515 15.1316 32.7464 16.1248 32.7464H26.6064C27.7367 32.7464 28.653 31.8301 28.653 30.6997C28.653 29.5694 27.7367 28.6531 26.6064 28.6531H16.1248C15.1316 28.6531 14.3265 27.848 14.3265 26.8548Z" fill="#2D9CDB"/>
</g>
</g>
</g>
<defs>
<clipPath id="clip0_0_1">
<rect x="-1565" y="-564" width="1919" height="1444" rx="20" fill="white"/>
</clipPath>
</defs>
</svg>
